<svg width="319" height="73" viewBox="0 0 319 73" fill="none" xmlns="http://www.w3.org/2000/svg">
<path d="M307.522 51.112C307.522 52.072 307.426 53.192 307.234 54.472C307.042 55.752 306.786 57.032 306.466 58.312C307.746 55.24 309.154 52.84 310.69 51.112C312.226 49.32 313.89 48.424 315.682 48.424C316.386 48.424 317.026 48.616 317.602 49C318.178 49.384 318.466 49.928 318.466 50.632C318.466 51.144 318.274 51.816 317.89 52.648C317.506 53.416 317.122 53.992 316.738 54.376C316.354 54.632 316.162 54.536 316.162 54.088C316.162 53 315.426 52.456 313.954 52.456C311.714 52.456 309.698 54.152 307.906 57.544C306.114 60.872 304.418 65.512 302.818 71.464C302.69 72.104 302.242 72.52 301.474 72.712C300.77 72.904 300.162 73 299.65 73C298.946 73 298.786 72.648 299.17 71.944C299.746 70.6 300.29 69.16 300.802 67.624C301.314 66.024 301.794 64.424 302.242 62.824C302.754 61.224 303.17 59.656 303.49 58.12C303.81 56.584 304.066 55.176 304.258 53.896C304.514 51.976 304.194 51.016 303.298 51.016C302.786 51.016 302.178 51.304 301.474 51.88C300.834 52.456 300.226 53.128 299.65 53.896C299.394 54.024 299.17 54.024 298.978 53.896C298.786 53.704 298.754 53.48 298.882 53.224C299.842 52.008 300.898 50.92 302.05 49.96C303.266 48.936 304.386 48.424 305.41 48.424C306.818 48.424 307.522 49.32 307.522 51.112Z" fill="black"/>
<path d="M273.459 73C272.627 73 271.891 72.616 271.251 71.848C270.611 71.016 270.291 69.96 270.291 68.68C270.291 67.656 270.419 66.472 270.675 65.128C270.995 63.72 271.379 62.248 271.827 60.712C272.339 59.176 272.947 57.64 273.651 56.104C274.355 54.568 275.155 53.128 276.051 51.784C275.347 52.296 274.611 52.872 273.843 53.512C273.075 54.088 272.435 54.632 271.923 55.144C271.731 55.272 271.571 55.24 271.443 55.048C271.315 54.792 271.283 54.568 271.347 54.376C271.795 53.928 272.371 53.416 273.075 52.84C273.779 52.264 274.515 51.688 275.283 51.112C276.115 50.536 276.947 49.992 277.779 49.48C278.675 48.904 279.507 48.424 280.275 48.04C280.531 47.976 280.723 48.04 280.851 48.232C281.043 48.424 281.107 48.648 281.043 48.904C278.995 51.528 277.331 54.44 276.051 57.64C274.835 60.776 274.227 63.784 274.227 66.664C274.227 68.52 274.771 69.448 275.859 69.448C276.691 69.448 277.715 68.904 278.931 67.816C280.211 66.664 281.523 65.192 282.867 63.4C284.211 61.544 285.555 59.464 286.899 57.16C288.307 54.856 289.587 52.52 290.739 50.152C290.931 49.704 291.283 49.32 291.795 49C292.371 48.616 292.979 48.424 293.619 48.424C294.451 48.424 294.739 48.68 294.483 49.192C293.587 50.856 292.787 52.424 292.083 53.896C291.379 55.304 290.803 56.712 290.355 58.12C289.907 59.528 289.555 60.968 289.299 62.44C289.107 63.912 289.011 65.512 289.011 67.24C289.011 69.288 289.587 70.312 290.739 70.312C291.251 70.312 291.827 70.056 292.467 69.544C293.107 68.968 293.747 68.232 294.387 67.336C294.579 67.208 294.771 67.208 294.963 67.336C295.155 67.464 295.187 67.688 295.059 68.008C294.163 69.352 293.107 70.536 291.891 71.56C290.739 72.52 289.619 73 288.531 73C287.699 73 286.995 72.584 286.419 71.752C285.843 70.92 285.555 69.8 285.555 68.392C285.555 66.856 285.683 65.224 285.939 63.496C286.259 61.704 286.739 59.912 287.379 58.12C286.163 60.488 284.883 62.6 283.539 64.456C282.195 66.248 280.883 67.784 279.603 69.064C278.387 70.344 277.235 71.336 276.147 72.04C275.059 72.68 274.163 73 273.459 73Z" fill="black"/>
<path d="M261.208 48.424C262.936 48.424 264.216 49 265.048 50.152C265.88 51.304 266.296 52.808 266.296 54.664C266.296 56.84 265.88 59.016 265.048 61.192C264.216 63.368 263.16 65.352 261.88 67.144C260.6 68.872 259.192 70.28 257.656 71.368C256.184 72.456 254.808 73 253.528 73C251.992 73 250.776 72.392 249.88 71.176C248.984 69.96 248.536 68.232 248.536 65.992C248.536 64.2 248.888 62.28 249.592 60.232C250.296 58.184 251.224 56.296 252.376 54.568C253.592 52.776 254.936 51.304 256.408 50.152C257.944 49 259.544 48.424 261.208 48.424ZM255.448 70.024C256.408 70.024 257.336 69.704 258.232 69.064C259.192 68.36 260.024 67.464 260.728 66.376C261.432 65.224 261.976 63.912 262.36 62.44C262.808 60.968 263.032 59.432 263.032 57.832C263.032 55.912 262.712 54.408 262.072 53.32C261.432 52.168 260.376 51.592 258.904 51.592C257.944 51.592 257.016 51.944 256.12 52.648C255.224 53.288 254.424 54.184 253.72 55.336C253.08 56.424 252.568 57.736 252.184 59.272C251.8 60.744 251.608 62.312 251.608 63.976C251.608 68.008 252.888 70.024 255.448 70.024Z" fill="black"/>
<path d="M240.176 52.84C240.176 51.496 239.696 50.824 238.736 50.824C237.776 50.824 236.72 51.304 235.568 52.264C234.416 53.224 233.2 54.6 231.92 56.392C230.704 58.184 229.456 60.392 228.176 63.016C226.96 65.576 225.776 68.488 224.624 71.752C224.496 72.136 224.144 72.456 223.568 72.712C223.056 72.904 222.544 73 222.032 73C221.264 73 220.976 72.712 221.168 72.136C221.552 70.984 222.064 69.544 222.704 67.816C223.408 66.088 224.048 64.328 224.624 62.536C225.264 60.68 225.808 58.952 226.256 57.352C226.704 55.752 226.928 54.504 226.928 53.608C226.928 51.816 226.384 50.92 225.296 50.92C223.632 50.92 221.52 52.712 218.96 56.296C216.4 59.88 213.968 65.032 211.664 71.752C211.536 72.136 211.248 72.456 210.8 72.712C210.352 72.904 209.872 73 209.36 73C209.04 73 208.784 72.936 208.592 72.808C208.4 72.68 208.368 72.456 208.496 72.136C209.008 70.728 209.552 69.192 210.128 67.528C210.704 65.8 211.28 64.072 211.856 62.344C212.432 60.616 212.944 58.92 213.392 57.256C213.904 55.592 214.32 54.024 214.64 52.552C214.96 51.4 214.8 50.824 214.16 50.824C213.648 50.824 213.04 51.176 212.336 51.88C211.632 52.584 210.928 53.416 210.224 54.376C210.032 54.504 209.84 54.504 209.648 54.376C209.456 54.184 209.424 53.992 209.552 53.8C210.512 52.456 211.568 51.24 212.72 50.152C213.936 49 215.152 48.424 216.368 48.424C217.2 48.424 217.712 48.744 217.904 49.384C218.16 50.024 218.192 50.792 218 51.688C217.68 53.096 217.36 54.408 217.04 55.624C216.784 56.776 216.432 57.96 215.984 59.176C217.648 55.976 219.472 53.384 221.456 51.4C223.504 49.416 225.52 48.424 227.504 48.424C228.272 48.424 228.88 48.712 229.328 49.288C229.84 49.864 230.096 50.664 230.096 51.688C230.096 53.032 229.968 54.376 229.712 55.72C229.456 57.064 229.072 58.44 228.56 59.848C230.48 56.2 232.528 53.384 234.704 51.4C236.944 49.416 239.152 48.424 241.328 48.424C242.032 48.424 242.608 48.68 243.056 49.192C243.504 49.704 243.728 50.376 243.728 51.208C243.728 52.36 243.472 53.64 242.96 55.048C242.512 56.392 242 57.8 241.424 59.272C240.848 60.744 240.304 62.216 239.792 63.688C239.344 65.096 239.12 66.44 239.12 67.72C239.12 69.32 239.6 70.12 240.56 70.12C241.584 70.12 242.992 69.064 244.784 66.952C244.912 66.824 245.04 66.856 245.168 67.048C245.36 67.24 245.392 67.464 245.264 67.72C244.88 68.232 244.4 68.808 243.824 69.448C243.248 70.024 242.64 70.6 242 71.176C241.424 71.688 240.784 72.136 240.08 72.52C239.376 72.84 238.704 73 238.064 73C236.592 73 235.856 71.784 235.856 69.352C235.856 67.816 236.08 66.28 236.528 64.744C236.976 63.144 237.456 61.64 237.968 60.232C238.544 58.76 239.056 57.384 239.504 56.104C239.952 54.824 240.176 53.736 240.176 52.84Z" fill="black"/>
<path d="M203.701 66.952C203.829 66.824 203.989 66.824 204.181 66.952C204.373 67.08 204.437 67.272 204.373 67.528C203.029 69.384 201.685 70.76 200.341 71.656C199.061 72.552 197.973 73 197.077 73C196.501 73 196.021 72.712 195.637 72.136C195.317 71.56 195.093 70.792 194.965 69.832C194.901 68.808 194.933 67.688 195.061 66.472C195.253 65.192 195.541 63.88 195.925 62.536C194.197 65.224 192.373 67.56 190.453 69.544C188.533 71.464 186.677 72.616 184.885 73C183.733 73 182.741 72.456 181.909 71.368C181.141 70.216 180.757 68.456 180.757 66.088C180.757 63.976 181.173 61.896 182.005 59.848C182.901 57.736 184.085 55.848 185.557 54.184C187.029 52.456 188.725 51.08 190.645 50.056C192.565 49.032 194.581 48.52 196.693 48.52C197.845 48.52 198.837 48.648 199.669 48.904C200.501 49.16 201.269 49.544 201.973 50.056C202.357 49.736 202.869 49.448 203.509 49.192C204.213 48.872 204.853 48.712 205.429 48.712C205.749 48.712 205.845 48.872 205.717 49.192C204.245 50.984 202.965 52.968 201.877 55.144C200.853 57.32 200.053 59.432 199.477 61.48C198.901 63.528 198.517 65.352 198.325 66.952C198.197 68.488 198.325 69.544 198.709 70.12C199.029 70.568 199.605 70.6 200.437 70.216C201.269 69.768 202.357 68.68 203.701 66.952ZM186.997 69.736C187.701 69.736 188.597 69.256 189.685 68.296C190.837 67.272 192.021 65.96 193.237 64.36C194.453 62.76 195.637 60.968 196.789 58.984C198.005 56.936 199.061 54.888 199.957 52.84C199.701 52.008 199.093 51.336 198.133 50.824C197.237 50.312 196.181 50.056 194.965 50.056C193.557 50.056 192.213 50.44 190.933 51.208C189.717 51.912 188.629 52.936 187.669 54.28C186.709 55.56 185.941 57.096 185.365 58.888C184.789 60.68 184.501 62.664 184.501 64.84C184.501 66.248 184.725 67.432 185.173 68.392C185.685 69.288 186.293 69.736 186.997 69.736Z" fill="black"/>
<path d="M181.437 33.256C181.757 33.384 182.013 33.8 182.205 34.504C182.461 35.144 182.589 35.848 182.589 36.616C182.589 38.6 181.821 40.68 180.285 42.856C178.813 44.968 176.957 46.696 174.717 48.04C174.461 48.04 174.301 47.944 174.237 47.752C174.173 47.496 174.237 47.24 174.429 46.984C175.837 46.088 176.989 44.968 177.885 43.624C178.781 42.28 179.229 40.872 179.229 39.4C179.229 38.056 178.909 37.192 178.269 36.808C178.077 36.616 178.077 36.328 178.269 35.944C178.525 35.56 178.845 35.176 179.229 34.792C179.613 34.408 179.997 34.056 180.381 33.736C180.829 33.416 181.181 33.256 181.437 33.256Z" fill="black"/>
<path d="M199.854 0.423996C201.518 0.423996 202.574 1.064 203.022 2.34399C203.47 3.624 203.246 5.224 202.35 7.144C201.838 7.528 201.518 7.432 201.39 6.856C201.518 5.96 201.262 5.256 200.622 4.744C199.982 4.232 199.086 3.976 197.934 3.976C195.63 3.976 193.294 4.776 190.926 6.376C188.558 7.976 186.254 10.216 184.014 13.096C181.774 15.912 179.598 19.24 177.486 23.08C175.374 26.92 173.422 31.08 171.63 35.56C169.838 40.04 168.206 44.744 166.734 49.672C165.326 54.536 164.174 59.432 163.278 64.36C163.022 65.832 162.958 67.144 163.086 68.296C163.214 69.384 163.662 69.928 164.43 69.928C165.134 69.928 165.838 69.576 166.542 68.872C167.246 68.104 167.886 67.272 168.462 66.376C168.59 66.248 168.75 66.248 168.942 66.376C169.198 66.504 169.294 66.696 169.23 66.952C168.91 67.528 168.462 68.168 167.886 68.872C167.31 69.576 166.67 70.248 165.966 70.888C165.326 71.464 164.654 71.976 163.95 72.424C163.246 72.808 162.606 73 162.03 73C160.942 73 160.174 72.552 159.726 71.656C159.342 70.696 159.214 69.48 159.342 68.008C159.406 66.92 159.534 65.896 159.726 64.936C159.918 63.976 160.142 62.952 160.398 61.864C159.822 63.208 159.054 64.52 158.094 65.8C157.134 67.016 156.142 68.136 155.118 69.16C154.094 70.184 153.07 71.048 152.046 71.752C151.086 72.392 150.254 72.808 149.55 73C148.462 73 147.406 72.552 146.382 71.656C145.422 70.696 144.942 69.192 144.942 67.144C144.942 64.712 145.358 62.376 146.19 60.136C147.022 57.832 148.142 55.816 149.55 54.088C151.022 52.36 152.686 50.984 154.542 49.96C156.462 48.872 158.51 48.328 160.686 48.328C161.39 48.328 161.998 48.424 162.51 48.616C163.086 48.808 163.598 49.064 164.046 49.384C165.198 45.928 166.574 42.312 168.174 38.536C169.838 34.76 171.63 31.08 173.55 27.496C175.47 23.848 177.486 20.392 179.598 17.128C181.774 13.864 183.982 11.016 186.222 8.584C188.526 6.088 190.83 4.104 193.134 2.632C195.438 1.16 197.678 0.423996 199.854 0.423996ZM151.278 69.64C151.982 69.64 152.814 69.256 153.774 68.488C154.798 67.656 155.79 66.6 156.75 65.32C157.774 64.04 158.734 62.568 159.63 60.904C160.59 59.176 161.39 57.416 162.03 55.624C162.222 54.984 162.414 54.376 162.606 53.8C162.798 53.224 162.958 52.648 163.086 52.072C162.83 51.304 162.35 50.76 161.646 50.44C160.942 50.056 160.142 49.864 159.246 49.864C157.902 49.864 156.59 50.28 155.31 51.112C154.03 51.88 152.878 52.968 151.854 54.376C150.894 55.784 150.094 57.448 149.454 59.368C148.878 61.288 148.59 63.4 148.59 65.704C148.59 67.048 148.846 68.04 149.358 68.68C149.934 69.32 150.574 69.64 151.278 69.64Z" fill="black"/>
<path d="M130.995 48.808C131.315 48.936 131.443 49.128 131.379 49.384C131.315 49.64 131.027 49.8 130.515 49.864C129.491 49.928 128.339 49.992 127.059 50.056C125.843 50.12 124.595 50.216 123.315 50.344C122.035 53.544 120.979 56.616 120.147 59.56C119.315 62.504 118.899 64.936 118.899 66.856C118.899 69.032 119.731 70.12 121.395 70.12C123.059 70.12 124.883 68.648 126.867 65.704C127.059 65.576 127.251 65.608 127.443 65.8C127.635 65.928 127.699 66.152 127.635 66.472C127.059 67.368 126.387 68.232 125.619 69.064C124.915 69.832 124.179 70.504 123.411 71.08C122.643 71.656 121.907 72.136 121.203 72.52C120.499 72.84 119.923 73 119.475 73C118.067 73 117.011 72.584 116.307 71.752C115.667 70.856 115.347 69.8 115.347 68.584C115.347 66.472 115.795 63.816 116.691 60.616C117.587 57.416 118.707 54.12 120.051 50.728C119.219 50.856 118.419 50.984 117.651 51.112C116.883 51.24 116.147 51.368 115.443 51.496C115.123 51.432 115.027 51.272 115.155 51.016C115.347 50.76 115.635 50.504 116.019 50.248C116.467 49.992 116.979 49.768 117.555 49.576C118.131 49.32 118.675 49.192 119.187 49.192C119.507 49.128 119.763 49.096 119.955 49.096C120.211 49.096 120.467 49.096 120.723 49.096C121.619 47.112 122.515 45.224 123.411 43.432C124.307 41.576 125.203 39.88 126.099 38.344C126.483 37.96 126.899 37.64 127.347 37.384C127.859 37.064 128.339 36.872 128.787 36.808C129.235 36.68 129.587 36.648 129.843 36.712C130.099 36.712 130.195 36.808 130.131 37C129.043 38.664 127.955 40.52 126.867 42.568C125.843 44.616 124.851 46.728 123.891 48.904C125.043 48.904 126.195 48.904 127.347 48.904C128.499 48.84 129.715 48.808 130.995 48.808Z" fill="black"/>
<path d="M88.7713 73C87.9393 73 87.2033 72.616 86.5633 71.848C85.9233 71.016 85.6033 69.96 85.6033 68.68C85.6033 67.656 85.7313 66.472 85.9873 65.128C86.3073 63.72 86.6913 62.248 87.1393 60.712C87.6513 59.176 88.2593 57.64 88.9633 56.104C89.6673 54.568 90.4673 53.128 91.3633 51.784C90.6593 52.296 89.9233 52.872 89.1553 53.512C88.3873 54.088 87.7473 54.632 87.2353 55.144C87.0433 55.272 86.8833 55.24 86.7553 55.048C86.6273 54.792 86.5953 54.568 86.6593 54.376C87.1073 53.928 87.6833 53.416 88.3873 52.84C89.0913 52.264 89.8273 51.688 90.5953 51.112C91.4273 50.536 92.2593 49.992 93.0913 49.48C93.9873 48.904 94.8193 48.424 95.5873 48.04C95.8433 47.976 96.0353 48.04 96.1633 48.232C96.3553 48.424 96.4193 48.648 96.3553 48.904C94.3073 51.528 92.6433 54.44 91.3633 57.64C90.1473 60.776 89.5393 63.784 89.5393 66.664C89.5393 68.52 90.0833 69.448 91.1713 69.448C92.0033 69.448 93.0273 68.904 94.2433 67.816C95.5233 66.664 96.8353 65.192 98.1793 63.4C99.5233 61.544 100.867 59.464 102.211 57.16C103.619 54.856 104.899 52.52 106.051 50.152C106.243 49.704 106.595 49.32 107.107 49C107.683 48.616 108.291 48.424 108.931 48.424C109.763 48.424 110.051 48.68 109.795 49.192C108.899 50.856 108.099 52.424 107.395 53.896C106.691 55.304 106.115 56.712 105.667 58.12C105.219 59.528 104.867 60.968 104.611 62.44C104.419 63.912 104.323 65.512 104.323 67.24C104.323 69.288 104.899 70.312 106.051 70.312C106.563 70.312 107.139 70.056 107.779 69.544C108.419 68.968 109.059 68.232 109.699 67.336C109.891 67.208 110.083 67.208 110.275 67.336C110.467 67.464 110.499 67.688 110.371 68.008C109.475 69.352 108.419 70.536 107.203 71.56C106.051 72.52 104.931 73 103.843 73C103.011 73 102.307 72.584 101.731 71.752C101.155 70.92 100.867 69.8 100.867 68.392C100.867 66.856 100.995 65.224 101.251 63.496C101.571 61.704 102.051 59.912 102.691 58.12C101.475 60.488 100.195 62.6 98.8513 64.456C97.5073 66.248 96.1953 67.784 94.9153 69.064C93.6993 70.344 92.5473 71.336 91.4593 72.04C90.3713 72.68 89.4753 73 88.7713 73Z" fill="black"/>
<path d="M112.119 1.672C113.783 1.672 114.839 2.44 115.287 3.976C115.799 5.512 115.607 7.144 114.711 8.872C114.583 9 114.423 9 114.231 8.872C114.039 8.744 113.911 8.584 113.847 8.392C113.975 7.62399 113.687 6.984 112.983 6.472C112.343 5.96 111.319 5.704 109.911 5.704C107.159 5.704 104.439 6.856 101.751 9.16C99.0634 11.464 96.4714 14.472 93.9754 18.184C91.4794 21.832 89.1434 25.928 86.9674 30.472C84.8554 35.016 82.9994 39.56 81.3994 44.104C79.8634 48.584 78.6474 52.84 77.7514 56.872C76.8554 60.84 76.4074 64.072 76.4074 66.568C76.4074 68.488 76.9514 69.448 78.0394 69.448C78.8074 69.448 79.5434 69.128 80.2474 68.488C81.0154 67.848 81.8794 66.888 82.8394 65.608C83.0314 65.48 83.1914 65.512 83.3194 65.704C83.5114 65.832 83.5754 66.024 83.5114 66.28C82.2314 68.264 80.8234 69.896 79.2874 71.176C77.7514 72.392 76.4394 73 75.3514 73C74.5194 73 73.8474 72.68 73.3354 72.04C72.8234 71.336 72.5674 70.408 72.5674 69.256C72.5674 67.464 72.8874 65.16 73.5274 62.344C74.1674 59.464 75.0634 56.264 76.2154 52.744C77.3674 49.224 78.7434 45.544 80.3434 41.704C82.0074 37.8 83.7994 33.96 85.7194 30.184C87.6394 26.408 89.6554 22.792 91.7674 19.336C93.9434 15.88 96.1514 12.84 98.3914 10.216C100.695 7.592 102.999 5.512 105.303 3.976C107.607 2.44 109.879 1.672 112.119 1.672Z" fill="black"/>
<path d="M67.3888 66.952C67.5168 66.824 67.6768 66.824 67.8688 66.952C68.0608 67.08 68.1248 67.272 68.0608 67.528C66.7168 69.384 65.3728 70.76 64.0288 71.656C62.7488 72.552 61.6608 73 60.7648 73C60.1888 73 59.7088 72.712 59.3248 72.136C59.0048 71.56 58.7808 70.792 58.6528 69.832C58.5888 68.808 58.6208 67.688 58.7488 66.472C58.9408 65.192 59.2288 63.88 59.6128 62.536C57.8848 65.224 56.0608 67.56 54.1408 69.544C52.2208 71.464 50.3648 72.616 48.5728 73C47.4208 73 46.4288 72.456 45.5968 71.368C44.8288 70.216 44.4448 68.456 44.4448 66.088C44.4448 63.976 44.8608 61.896 45.6928 59.848C46.5888 57.736 47.7728 55.848 49.2448 54.184C50.7168 52.456 52.4128 51.08 54.3328 50.056C56.2528 49.032 58.2688 48.52 60.3808 48.52C61.5328 48.52 62.5248 48.648 63.3568 48.904C64.1888 49.16 64.9568 49.544 65.6608 50.056C66.0448 49.736 66.5568 49.448 67.1968 49.192C67.9008 48.872 68.5408 48.712 69.1168 48.712C69.4368 48.712 69.5328 48.872 69.4048 49.192C67.9328 50.984 66.6528 52.968 65.5648 55.144C64.5408 57.32 63.7408 59.432 63.1648 61.48C62.5888 63.528 62.2048 65.352 62.0128 66.952C61.8848 68.488 62.0128 69.544 62.3968 70.12C62.7168 70.568 63.2928 70.6 64.1248 70.216C64.9568 69.768 66.0448 68.68 67.3888 66.952ZM50.6848 69.736C51.3888 69.736 52.2848 69.256 53.3728 68.296C54.5248 67.272 55.7088 65.96 56.9248 64.36C58.1408 62.76 59.3248 60.968 60.4768 58.984C61.6928 56.936 62.7488 54.888 63.6448 52.84C63.3888 52.008 62.7808 51.336 61.8208 50.824C60.9248 50.312 59.8688 50.056 58.6528 50.056C57.2448 50.056 55.9008 50.44 54.6208 51.208C53.4048 51.912 52.3168 52.936 51.3568 54.28C50.3968 55.56 49.6288 57.096 49.0528 58.888C48.4768 60.68 48.1888 62.664 48.1888 64.84C48.1888 66.248 48.4128 67.432 48.8608 68.392C49.3728 69.288 49.9808 69.736 50.6848 69.736Z" fill="black"/>
<path d="M0.143799 61.384C0.143799 59.208 0.687799 57.224 1.7758 55.432C2.9278 53.576 4.5598 52.104 6.6718 51.016C6.9278 50.888 7.0878 50.984 7.1518 51.304C7.2798 51.56 7.2798 51.784 7.1518 51.976C4.8478 53.256 3.6958 55.56 3.6958 58.888C3.6958 60.552 4.0478 62.12 4.7518 63.592C5.4558 65 6.4478 66.248 7.7278 67.336C9.0718 68.36 10.6718 69.192 12.5278 69.832C14.4478 70.472 16.6238 70.792 19.0558 70.792C24.8798 70.792 29.1678 69.544 31.9198 67.048C34.7358 64.552 36.1438 61.48 36.1438 57.832C36.1438 55.4 35.7918 53.192 35.0878 51.208C34.3838 49.224 33.4878 47.368 32.3998 45.64C31.3758 43.848 30.2558 42.152 29.0398 40.552C27.8238 38.952 26.6718 37.352 25.5838 35.752C24.5598 34.152 23.6958 32.488 22.9918 30.76C22.2878 29.032 21.9358 27.144 21.9358 25.096C21.9358 23.176 22.3198 21.384 23.0878 19.72C23.8558 17.992 24.8798 16.52 26.1598 15.304C27.4398 14.024 28.9438 13.032 30.6718 12.328C32.4638 11.56 34.3838 11.176 36.4318 11.176C39.3118 11.176 41.5838 11.912 43.2478 13.384C44.9118 14.856 45.7438 16.52 45.7438 18.376C45.7438 19.464 45.3918 20.648 44.6878 21.928C43.9838 23.208 43.2798 24.328 42.5758 25.288C42.3198 25.416 42.0958 25.416 41.9038 25.288C41.7758 25.096 41.7118 24.84 41.7118 24.52C42.5438 23.496 42.9598 22.088 42.9598 20.296C42.9598 18.44 42.1278 16.872 40.4638 15.592C38.8638 14.248 36.7198 13.576 34.0318 13.576C31.2798 13.576 29.0398 14.376 27.3118 15.976C25.6478 17.512 24.8158 19.464 24.8158 21.832C24.8158 23.752 25.1678 25.576 25.8718 27.304C26.6398 28.968 27.5678 30.664 28.6558 32.392C29.7438 34.056 30.8958 35.752 32.1118 37.48C33.3918 39.144 34.5758 40.904 35.6638 42.76C36.7518 44.552 37.6478 46.472 38.3518 48.52C39.1198 50.504 39.5038 52.68 39.5038 55.048C39.5038 57.672 38.9278 60.104 37.7758 62.344C36.6238 64.52 35.0558 66.408 33.0718 68.008C31.0878 69.608 28.7518 70.856 26.0638 71.752C23.3758 72.584 20.5278 73 17.5198 73C11.8878 73 7.5678 71.912 4.5598 69.736C1.6158 67.56 0.143799 64.776 0.143799 61.384Z" fill="black"/>
</svg>
